<mxfile host="app.diagrams.net" agent="Mozilla/5.0 (Windows NT 10.0; Win64; x64) AppleWebKit/537.36 (KHTML, like Gecko) Chrome/140.0.0.0 Safari/537.36" version="28.1.2" pages="4">
  <diagram name="Framework" id="izHdCFUZK2JU7I0uywET">
    <mxGraphModel dx="3109" dy="2160" grid="1" gridSize="10" guides="1" tooltips="1" connect="1" arrows="1" fold="1" page="1" pageScale="1" pageWidth="827" pageHeight="1169" math="0" shadow="0">
      <root>
        <mxCell id="0" />
        <mxCell id="1" parent="0" />
        <mxCell id="oX8QJ8v67Z4_SSj95SlL-10" value="" style="rounded=0;whiteSpace=wrap;html=1;fillColor=#eeeeee;strokeColor=#36393d;" parent="1" vertex="1">
          <mxGeometry x="-578" y="590" width="330" height="170" as="geometry" />
        </mxCell>
        <mxCell id="oX8QJ8v67Z4_SSj95SlL-44" value="" style="edgeStyle=orthogonalEdgeStyle;rounded=0;orthogonalLoop=1;jettySize=auto;html=1;dashed=1;" parent="1" source="oX8QJ8v67Z4_SSj95SlL-12" target="oX8QJ8v67Z4_SSj95SlL-43" edge="1">
          <mxGeometry relative="1" as="geometry" />
        </mxCell>
        <mxCell id="oX8QJ8v67Z4_SSj95SlL-1" value="" style="rounded=0;whiteSpace=wrap;html=1;fillColor=#eeeeee;strokeColor=#36393d;" parent="1" vertex="1">
          <mxGeometry x="-578" y="40" width="330" height="170" as="geometry" />
        </mxCell>
        <mxCell id="Np0CVXmdSU2NpfKUSfFp-4" value="ShmFifo" style="rounded=0;whiteSpace=wrap;html=1;fillColor=#ffcccc;strokeColor=#36393d;" parent="1" vertex="1">
          <mxGeometry x="220" y="-20" width="120" height="60" as="geometry" />
        </mxCell>
        <mxCell id="Np0CVXmdSU2NpfKUSfFp-17" value="" style="edgeStyle=orthogonalEdgeStyle;rounded=0;orthogonalLoop=1;jettySize=auto;html=1;endArrow=block;endFill=0;fillColor=#eeeeee;strokeColor=#36393d;" parent="1" source="Np0CVXmdSU2NpfKUSfFp-1" target="Np0CVXmdSU2NpfKUSfFp-16" edge="1">
          <mxGeometry relative="1" as="geometry" />
        </mxCell>
        <mxCell id="Np0CVXmdSU2NpfKUSfFp-1" value="NsqMdApi" style="rounded=1;whiteSpace=wrap;html=1;fillColor=#eeeeee;strokeColor=#36393d;" parent="1" vertex="1">
          <mxGeometry x="-560" y="60" width="120" height="60" as="geometry" />
        </mxCell>
        <mxCell id="Np0CVXmdSU2NpfKUSfFp-28" value="" style="edgeStyle=orthogonalEdgeStyle;rounded=0;orthogonalLoop=1;jettySize=auto;html=1;endArrow=block;endFill=0;" parent="1" source="Np0CVXmdSU2NpfKUSfFp-14" target="Np0CVXmdSU2NpfKUSfFp-16" edge="1">
          <mxGeometry relative="1" as="geometry" />
        </mxCell>
        <mxCell id="oX8QJ8v67Z4_SSj95SlL-21" style="edgeStyle=orthogonalEdgeStyle;rounded=0;orthogonalLoop=1;jettySize=auto;html=1;exitX=0.5;exitY=1;exitDx=0;exitDy=0;shape=flexArrow;" parent="1" source="Np0CVXmdSU2NpfKUSfFp-14" target="Np0CVXmdSU2NpfKUSfFp-22" edge="1">
          <mxGeometry relative="1" as="geometry" />
        </mxCell>
        <mxCell id="Np0CVXmdSU2NpfKUSfFp-14" value="QuoteServerBase" style="rounded=1;whiteSpace=wrap;html=1;fillColor=#ffcccc;strokeColor=#36393d;" parent="1" vertex="1">
          <mxGeometry x="-160" y="60" width="120" height="60" as="geometry" />
        </mxCell>
        <mxCell id="Np0CVXmdSU2NpfKUSfFp-20" value="" style="edgeStyle=orthogonalEdgeStyle;rounded=0;orthogonalLoop=1;jettySize=auto;html=1;endArrow=block;endFill=0;" parent="1" source="Np0CVXmdSU2NpfKUSfFp-15" target="Np0CVXmdSU2NpfKUSfFp-14" edge="1">
          <mxGeometry relative="1" as="geometry" />
        </mxCell>
        <mxCell id="Np0CVXmdSU2NpfKUSfFp-25" style="edgeStyle=orthogonalEdgeStyle;rounded=0;orthogonalLoop=1;jettySize=auto;html=1;endArrow=block;endFill=0;" parent="1" source="Np0CVXmdSU2NpfKUSfFp-15" target="Np0CVXmdSU2NpfKUSfFp-22" edge="1">
          <mxGeometry relative="1" as="geometry">
            <Array as="points">
              <mxPoint y="90" />
              <mxPoint y="270" />
            </Array>
          </mxGeometry>
        </mxCell>
        <mxCell id="oX8QJ8v67Z4_SSj95SlL-15" style="edgeStyle=orthogonalEdgeStyle;rounded=0;orthogonalLoop=1;jettySize=auto;html=1;endArrow=open;endFill=0;" parent="1" target="Np0CVXmdSU2NpfKUSfFp-4" edge="1">
          <mxGeometry relative="1" as="geometry">
            <mxPoint x="102.05263157894751" y="60" as="sourcePoint" />
            <mxPoint x="222" y="0.052631578947512025" as="targetPoint" />
            <Array as="points">
              <mxPoint x="102" y="10" />
            </Array>
          </mxGeometry>
        </mxCell>
        <mxCell id="oX8QJ8v67Z4_SSj95SlL-17" style="edgeStyle=orthogonalEdgeStyle;rounded=0;orthogonalLoop=1;jettySize=auto;html=1;endArrow=block;endFill=0;" parent="1" source="Np0CVXmdSU2NpfKUSfFp-15" target="Np0CVXmdSU2NpfKUSfFp-33" edge="1">
          <mxGeometry relative="1" as="geometry">
            <Array as="points">
              <mxPoint y="90" />
              <mxPoint y="640" />
            </Array>
          </mxGeometry>
        </mxCell>
        <mxCell id="Np0CVXmdSU2NpfKUSfFp-15" value="ServerBase" style="rounded=1;whiteSpace=wrap;html=1;fontStyle=1;fillColor=#ffcccc;strokeColor=#36393d;" parent="1" vertex="1">
          <mxGeometry x="40" y="60" width="120" height="60" as="geometry" />
        </mxCell>
        <mxCell id="Np0CVXmdSU2NpfKUSfFp-16" value="NsqQuoteServer" style="rounded=1;whiteSpace=wrap;html=1;fillColor=#eeeeee;strokeColor=#36393d;" parent="1" vertex="1">
          <mxGeometry x="-400" y="60" width="120" height="60" as="geometry" />
        </mxCell>
        <mxCell id="Np0CVXmdSU2NpfKUSfFp-27" value="" style="edgeStyle=orthogonalEdgeStyle;rounded=0;orthogonalLoop=1;jettySize=auto;html=1;endArrow=block;endFill=0;" parent="1" source="Np0CVXmdSU2NpfKUSfFp-22" target="Np0CVXmdSU2NpfKUSfFp-24" edge="1">
          <mxGeometry relative="1" as="geometry" />
        </mxCell>
        <mxCell id="Np0CVXmdSU2NpfKUSfFp-32" style="edgeStyle=orthogonalEdgeStyle;rounded=0;orthogonalLoop=1;jettySize=auto;html=1;endArrow=block;endFill=0;" parent="1" source="Np0CVXmdSU2NpfKUSfFp-22" target="Np0CVXmdSU2NpfKUSfFp-30" edge="1">
          <mxGeometry relative="1" as="geometry">
            <Array as="points">
              <mxPoint x="-320" y="270" />
              <mxPoint x="-320" y="370" />
            </Array>
          </mxGeometry>
        </mxCell>
        <mxCell id="oX8QJ8v67Z4_SSj95SlL-20" value="" style="edgeStyle=orthogonalEdgeStyle;rounded=0;orthogonalLoop=1;jettySize=auto;html=1;endArrow=open;endFill=0;" parent="1" source="Np0CVXmdSU2NpfKUSfFp-22" target="oX8QJ8v67Z4_SSj95SlL-7" edge="1">
          <mxGeometry relative="1" as="geometry">
            <Array as="points">
              <mxPoint x="-100" y="330" />
              <mxPoint x="-240" y="330" />
            </Array>
          </mxGeometry>
        </mxCell>
        <mxCell id="oX8QJ8v67Z4_SSj95SlL-22" style="edgeStyle=orthogonalEdgeStyle;rounded=0;orthogonalLoop=1;jettySize=auto;html=1;exitX=0.5;exitY=1;exitDx=0;exitDy=0;shape=flexArrow;" parent="1" source="Np0CVXmdSU2NpfKUSfFp-22" target="Np0CVXmdSU2NpfKUSfFp-33" edge="1">
          <mxGeometry relative="1" as="geometry">
            <mxPoint x="-100" y="470" as="targetPoint" />
          </mxGeometry>
        </mxCell>
        <mxCell id="oX8QJ8v67Z4_SSj95SlL-40" style="edgeStyle=orthogonalEdgeStyle;rounded=0;orthogonalLoop=1;jettySize=auto;html=1;exitX=0.5;exitY=1;exitDx=0;exitDy=0;endArrow=open;endFill=0;" parent="1" source="Np0CVXmdSU2NpfKUSfFp-22" target="oX8QJ8v67Z4_SSj95SlL-39" edge="1">
          <mxGeometry relative="1" as="geometry" />
        </mxCell>
        <mxCell id="Np0CVXmdSU2NpfKUSfFp-22" value="StrategyServerBase" style="rounded=1;whiteSpace=wrap;html=1;fillColor=#ffcccc;strokeColor=#36393d;" parent="1" vertex="1">
          <mxGeometry x="-160" y="240" width="120" height="60" as="geometry" />
        </mxCell>
        <mxCell id="Np0CVXmdSU2NpfKUSfFp-23" value="LogUtil" style="rounded=0;whiteSpace=wrap;html=1;" parent="1" vertex="1">
          <mxGeometry x="220" y="60" width="120" height="60" as="geometry" />
        </mxCell>
        <mxCell id="Np0CVXmdSU2NpfKUSfFp-24" value="StrategyA" style="rounded=1;whiteSpace=wrap;html=1;fillColor=#f5f5f5;strokeColor=#666666;fontColor=#333333;" parent="1" vertex="1">
          <mxGeometry x="-490" y="240" width="120" height="60" as="geometry" />
        </mxCell>
        <mxCell id="Np0CVXmdSU2NpfKUSfFp-30" value="Executor" style="rounded=1;whiteSpace=wrap;html=1;fillColor=#ffcccc;strokeColor=#36393d;" parent="1" vertex="1">
          <mxGeometry x="-490" y="340" width="120" height="60" as="geometry" />
        </mxCell>
        <mxCell id="oX8QJ8v67Z4_SSj95SlL-14" style="edgeStyle=orthogonalEdgeStyle;rounded=0;orthogonalLoop=1;jettySize=auto;html=1;endArrow=block;endFill=0;" parent="1" source="Np0CVXmdSU2NpfKUSfFp-33" target="oX8QJ8v67Z4_SSj95SlL-13" edge="1">
          <mxGeometry relative="1" as="geometry" />
        </mxCell>
        <mxCell id="oX8QJ8v67Z4_SSj95SlL-19" style="edgeStyle=orthogonalEdgeStyle;rounded=0;orthogonalLoop=1;jettySize=auto;html=1;endArrow=block;endFill=0;" parent="1" source="Np0CVXmdSU2NpfKUSfFp-33" target="oX8QJ8v67Z4_SSj95SlL-18" edge="1">
          <mxGeometry relative="1" as="geometry">
            <Array as="points">
              <mxPoint x="-220" y="640" />
              <mxPoint x="-220" y="810" />
            </Array>
          </mxGeometry>
        </mxCell>
        <mxCell id="oX8QJ8v67Z4_SSj95SlL-38" style="rounded=0;orthogonalLoop=1;jettySize=auto;html=1;shape=flexArrow;" parent="1" source="Np0CVXmdSU2NpfKUSfFp-22" target="oX8QJ8v67Z4_SSj95SlL-6" edge="1">
          <mxGeometry relative="1" as="geometry" />
        </mxCell>
        <mxCell id="Np0CVXmdSU2NpfKUSfFp-33" value="TradeServerBase" style="rounded=1;whiteSpace=wrap;html=1;fillColor=#ffcccc;strokeColor=#36393d;" parent="1" vertex="1">
          <mxGeometry x="-160" y="610" width="120" height="60" as="geometry" />
        </mxCell>
        <mxCell id="Np0CVXmdSU2NpfKUSfFp-36" value="跨期套利：&lt;div&gt;(交易通道 交易机) 行情 - 套利策略 - 下单&lt;/div&gt;&lt;div&gt;(调参通道 个人机器) 行情? - web前端? - 后端? - 信号&lt;/div&gt;&lt;div&gt;&lt;br&gt;&lt;/div&gt;&lt;div&gt;指数现货行情 - 期货下单服务器&lt;/div&gt;&lt;div&gt;- wind 3s一次指数数据&lt;/div&gt;&lt;div&gt;- 前二十支成分股实时维护&lt;/div&gt;" style="shape=note;whiteSpace=wrap;html=1;align=left;backgroundOutline=1;darkOpacity=0.05;verticalAlign=top;" parent="1" vertex="1">
          <mxGeometry x="-1230" y="210" width="360" height="270" as="geometry" />
        </mxCell>
        <mxCell id="oX8QJ8v67Z4_SSj95SlL-3" value="SimQuoteServer" style="rounded=1;whiteSpace=wrap;html=1;fillColor=#ffff88;strokeColor=#36393d;fontStyle=2" parent="1" vertex="1">
          <mxGeometry x="-400" y="-70" width="120" height="60" as="geometry" />
        </mxCell>
        <mxCell id="oX8QJ8v67Z4_SSj95SlL-4" value="" style="edgeStyle=orthogonalEdgeStyle;rounded=0;orthogonalLoop=1;jettySize=auto;html=1;endArrow=block;endFill=0;" parent="1" source="Np0CVXmdSU2NpfKUSfFp-14" target="oX8QJ8v67Z4_SSj95SlL-3" edge="1">
          <mxGeometry relative="1" as="geometry">
            <mxPoint x="-20" y="-110" as="sourcePoint" />
            <mxPoint x="-140" y="-110" as="targetPoint" />
            <Array as="points">
              <mxPoint x="-220" y="90" />
              <mxPoint x="-220" y="-40" />
            </Array>
          </mxGeometry>
        </mxCell>
        <mxCell id="oX8QJ8v67Z4_SSj95SlL-42" style="rounded=0;orthogonalLoop=1;jettySize=auto;html=1;shape=flexArrow;" parent="1" source="oX8QJ8v67Z4_SSj95SlL-45" target="Np0CVXmdSU2NpfKUSfFp-14" edge="1">
          <mxGeometry relative="1" as="geometry" />
        </mxCell>
        <mxCell id="oX8QJ8v67Z4_SSj95SlL-46" value="" style="edgeStyle=orthogonalEdgeStyle;rounded=0;orthogonalLoop=1;jettySize=auto;html=1;dashed=1;" parent="1" source="oX8QJ8v67Z4_SSj95SlL-6" target="oX8QJ8v67Z4_SSj95SlL-45" edge="1">
          <mxGeometry relative="1" as="geometry" />
        </mxCell>
        <mxCell id="oX8QJ8v67Z4_SSj95SlL-6" value="InterServerSignal" style="rounded=0;whiteSpace=wrap;html=1;fillColor=#ffff88;strokeColor=#36393d;" parent="1" vertex="1">
          <mxGeometry x="220" y="610" width="120" height="60" as="geometry" />
        </mxCell>
        <mxCell id="oX8QJ8v67Z4_SSj95SlL-7" value="OrderManager" style="rounded=0;whiteSpace=wrap;html=1;fillColor=#ffcccc;strokeColor=#36393d;" parent="1" vertex="1">
          <mxGeometry x="-302" y="360" width="120" height="60" as="geometry" />
        </mxCell>
        <mxCell id="oX8QJ8v67Z4_SSj95SlL-11" value="" style="edgeStyle=orthogonalEdgeStyle;rounded=0;orthogonalLoop=1;jettySize=auto;html=1;endArrow=block;endFill=0;fillColor=#eeeeee;strokeColor=#36393d;" parent="1" source="oX8QJ8v67Z4_SSj95SlL-12" target="oX8QJ8v67Z4_SSj95SlL-13" edge="1">
          <mxGeometry relative="1" as="geometry" />
        </mxCell>
        <mxCell id="oX8QJ8v67Z4_SSj95SlL-12" value="YidaTdApi" style="rounded=1;whiteSpace=wrap;html=1;fillColor=#eeeeee;strokeColor=#36393d;" parent="1" vertex="1">
          <mxGeometry x="-560" y="610" width="120" height="60" as="geometry" />
        </mxCell>
        <mxCell id="oX8QJ8v67Z4_SSj95SlL-13" value="YidaTradeServer" style="rounded=1;whiteSpace=wrap;html=1;fillColor=#eeeeee;strokeColor=#36393d;" parent="1" vertex="1">
          <mxGeometry x="-400" y="610" width="120" height="60" as="geometry" />
        </mxCell>
        <mxCell id="oX8QJ8v67Z4_SSj95SlL-18" value="SimTradeServer" style="rounded=1;whiteSpace=wrap;html=1;fillColor=#ffff88;strokeColor=#36393d;fontStyle=2" parent="1" vertex="1">
          <mxGeometry x="-400" y="780" width="120" height="60" as="geometry" />
        </mxCell>
        <mxCell id="oX8QJ8v67Z4_SSj95SlL-25" value="" style="edgeStyle=orthogonalEdgeStyle;rounded=0;orthogonalLoop=1;jettySize=auto;html=1;endArrow=open;endFill=0;" parent="1" source="oX8QJ8v67Z4_SSj95SlL-24" target="Np0CVXmdSU2NpfKUSfFp-15" edge="1">
          <mxGeometry relative="1" as="geometry" />
        </mxCell>
        <mxCell id="oX8QJ8v67Z4_SSj95SlL-24" value="ServerManager" style="rounded=0;whiteSpace=wrap;html=1;fillColor=#ffcccc;strokeColor=#36393d;" parent="1" vertex="1">
          <mxGeometry x="40" y="160" width="120" height="60" as="geometry" />
        </mxCell>
        <mxCell id="oX8QJ8v67Z4_SSj95SlL-28" value="" style="edgeStyle=orthogonalEdgeStyle;rounded=0;orthogonalLoop=1;jettySize=auto;html=1;fillColor=#eeeeee;strokeColor=#36393d;dashed=1;" parent="1" source="oX8QJ8v67Z4_SSj95SlL-27" target="Np0CVXmdSU2NpfKUSfFp-1" edge="1">
          <mxGeometry relative="1" as="geometry" />
        </mxCell>
        <mxCell id="oX8QJ8v67Z4_SSj95SlL-27" value="" style="ellipse;shape=cloud;whiteSpace=wrap;html=1;fillColor=#eeeeee;strokeColor=#36393d;" parent="1" vertex="1">
          <mxGeometry x="-750" y="50" width="120" height="80" as="geometry" />
        </mxCell>
        <mxCell id="oX8QJ8v67Z4_SSj95SlL-29" value="Business Models" style="rounded=0;whiteSpace=wrap;html=1;" parent="1" vertex="1">
          <mxGeometry x="230" y="255" width="120" height="60" as="geometry" />
        </mxCell>
        <mxCell id="oX8QJ8v67Z4_SSj95SlL-30" value="Data Infra" style="rounded=0;whiteSpace=wrap;html=1;fillColor=#ffcccc;strokeColor=#36393d;" parent="1" vertex="1">
          <mxGeometry x="230" y="335" width="120" height="60" as="geometry" />
        </mxCell>
        <mxCell id="oX8QJ8v67Z4_SSj95SlL-34" value="MessageType" style="rounded=0;whiteSpace=wrap;html=1;" parent="1" vertex="1">
          <mxGeometry x="390" y="-20" width="120" height="60" as="geometry" />
        </mxCell>
        <mxCell id="oX8QJ8v67Z4_SSj95SlL-35" value="OnSnapshot..." style="text;html=1;align=center;verticalAlign=middle;resizable=0;points=[];autosize=1;strokeColor=none;fillColor=none;" parent="1" vertex="1">
          <mxGeometry x="-265" y="235" width="100" height="30" as="geometry" />
        </mxCell>
        <mxCell id="oX8QJ8v67Z4_SSj95SlL-39" value="PositionManager" style="rounded=0;whiteSpace=wrap;html=1;fillColor=#ffff88;strokeColor=#36393d;" parent="1" vertex="1">
          <mxGeometry x="-302" y="440" width="120" height="60" as="geometry" />
        </mxCell>
        <mxCell id="oX8QJ8v67Z4_SSj95SlL-41" value="Shm" style="text;html=1;align=center;verticalAlign=middle;resizable=0;points=[];autosize=1;strokeColor=none;fillColor=none;" parent="1" vertex="1">
          <mxGeometry x="215" y="-52" width="50" height="30" as="geometry" />
        </mxCell>
        <mxCell id="oX8QJ8v67Z4_SSj95SlL-43" value="" style="ellipse;shape=cloud;whiteSpace=wrap;html=1;fillColor=#eeeeee;strokeColor=#36393d;" parent="1" vertex="1">
          <mxGeometry x="-760" y="600" width="120" height="80" as="geometry" />
        </mxCell>
        <mxCell id="oX8QJ8v67Z4_SSj95SlL-45" value="InterServerSignal" style="rounded=0;whiteSpace=wrap;html=1;fillColor=#ffff88;strokeColor=#36393d;" parent="1" vertex="1">
          <mxGeometry x="430" y="610" width="120" height="60" as="geometry" />
        </mxCell>
        <mxCell id="KkvAkN_Q9vo7Hp4z4sSe-1" value="TimeUtil" style="rounded=0;whiteSpace=wrap;html=1;" parent="1" vertex="1">
          <mxGeometry x="220" y="140" width="120" height="60" as="geometry" />
        </mxCell>
      </root>
    </mxGraphModel>
  </diagram>
  <diagram id="ARc7PlArKbjjScx_lO4y" name="Reference Infra">
    <mxGraphModel dx="2893" dy="1185" grid="1" gridSize="10" guides="1" tooltips="1" connect="1" arrows="1" fold="1" page="1" pageScale="1" pageWidth="827" pageHeight="1169" math="0" shadow="0">
      <root>
        <mxCell id="0" />
        <mxCell id="1" parent="0" />
        <mxCell id="_dNiTlbKljafT5K42C06-1" value="dispatcher" style="rounded=0;whiteSpace=wrap;html=1;fillColor=#FAE5C7;strokeColor=#0F8B8D;fontColor=#143642;labelBackgroundColor=none;" parent="1" vertex="1">
          <mxGeometry x="120" y="520" width="560" height="40" as="geometry" />
        </mxCell>
        <mxCell id="_dNiTlbKljafT5K42C06-2" value="channel" style="rounded=0;whiteSpace=wrap;html=1;fillColor=#FAE5C7;strokeColor=#0F8B8D;fontColor=#143642;labelBackgroundColor=none;" parent="1" vertex="1">
          <mxGeometry x="160" y="480" width="480" height="40" as="geometry" />
        </mxCell>
        <mxCell id="_dNiTlbKljafT5K42C06-4" value="link type" style="rounded=0;whiteSpace=wrap;html=1;strokeColor=#0F8B8D;fontColor=#143642;fillColor=#FAE5C7;" parent="1" vertex="1">
          <mxGeometry x="200" y="440" width="400" height="40" as="geometry" />
        </mxCell>
        <mxCell id="_dNiTlbKljafT5K42C06-5" value="Market Data" style="ellipse;shape=cloud;whiteSpace=wrap;html=1;strokeColor=#36393d;fillColor=#eeeeee;" parent="1" vertex="1">
          <mxGeometry x="240" y="600" width="120" height="80" as="geometry" />
        </mxCell>
        <mxCell id="_dNiTlbKljafT5K42C06-6" value="Trade Server" style="ellipse;shape=cloud;whiteSpace=wrap;html=1;strokeColor=#36393d;fillColor=#eeeeee;" parent="1" vertex="1">
          <mxGeometry x="440" y="600" width="120" height="80" as="geometry" />
        </mxCell>
        <mxCell id="_dNiTlbKljafT5K42C06-8" value="processor" style="rounded=0;whiteSpace=wrap;html=1;strokeColor=#0F8B8D;fontColor=#143642;fillColor=#FAE5C7;" parent="1" vertex="1">
          <mxGeometry x="190" y="400" width="200" height="40" as="geometry" />
        </mxCell>
        <mxCell id="_dNiTlbKljafT5K42C06-9" value="multi channel dispatching strategy" style="shape=note;whiteSpace=wrap;html=1;backgroundOutline=1;darkOpacity=0.05;fillColor=#fff2cc;strokeColor=#d6b656;" parent="1" vertex="1">
          <mxGeometry x="720" y="540" width="230" height="65" as="geometry" />
        </mxCell>
        <mxCell id="_dNiTlbKljafT5K42C06-11" value="multicast &amp;amp; message propt" style="rounded=0;whiteSpace=wrap;html=1;strokeColor=#0F8B8D;fontColor=#143642;fillColor=#FAE5C7;" parent="1" vertex="1">
          <mxGeometry x="410" y="400" width="200" height="40" as="geometry" />
        </mxCell>
        <mxCell id="_dNiTlbKljafT5K42C06-12" value="handler" style="rounded=0;whiteSpace=wrap;html=1;strokeColor=#0F8B8D;fontColor=#143642;fillColor=#FAE5C7;" parent="1" vertex="1">
          <mxGeometry x="240" y="350" width="100" height="40" as="geometry" />
        </mxCell>
        <mxCell id="_dNiTlbKljafT5K42C06-13" value="listener" style="rounded=0;whiteSpace=wrap;html=1;strokeColor=#0F8B8D;fontColor=#143642;fillColor=#FAE5C7;" parent="1" vertex="1">
          <mxGeometry x="240" y="310" width="100" height="40" as="geometry" />
        </mxCell>
        <mxCell id="_dNiTlbKljafT5K42C06-15" value="" style="endArrow=none;dashed=1;html=1;rounded=0;strokeColor=#A8201A;fontColor=#143642;fillColor=#FAE5C7;movable=0;resizable=0;rotatable=0;deletable=0;editable=0;locked=1;connectable=0;" parent="1" edge="1">
          <mxGeometry width="50" height="50" relative="1" as="geometry">
            <mxPoint x="400" y="720" as="sourcePoint" />
            <mxPoint x="400" y="60" as="targetPoint" />
          </mxGeometry>
        </mxCell>
        <mxCell id="_dNiTlbKljafT5K42C06-16" value="trade server" style="rounded=0;whiteSpace=wrap;html=1;strokeColor=#0F8B8D;fontColor=#143642;fillColor=#FAE5C7;" parent="1" vertex="1">
          <mxGeometry x="540" y="350" width="100" height="40" as="geometry" />
        </mxCell>
        <mxCell id="_dNiTlbKljafT5K42C06-17" value="history server" style="rounded=0;whiteSpace=wrap;html=1;strokeColor=#0F8B8D;fontColor=#143642;fillColor=#FAE5C7;" parent="1" vertex="1">
          <mxGeometry x="650" y="350" width="100" height="40" as="geometry" />
        </mxCell>
        <mxCell id="_dNiTlbKljafT5K42C06-18" value="position server" style="rounded=0;whiteSpace=wrap;html=1;strokeColor=#0F8B8D;fontColor=#143642;fillColor=#FAE5C7;dashed=1;" parent="1" vertex="1">
          <mxGeometry x="720" y="300" width="100" height="40" as="geometry" />
        </mxCell>
        <mxCell id="_dNiTlbKljafT5K42C06-19" value="risk model" style="rounded=0;whiteSpace=wrap;html=1;strokeColor=#0F8B8D;fontColor=#143642;fillColor=#FAE5C7;" parent="1" vertex="1">
          <mxGeometry x="430" y="350" width="100" height="40" as="geometry" />
        </mxCell>
        <mxCell id="_dNiTlbKljafT5K42C06-21" value="OM" style="rounded=0;whiteSpace=wrap;html=1;strokeColor=#0F8B8D;fontColor=#143642;fillColor=#FAE5C7;" parent="1" vertex="1">
          <mxGeometry x="480" y="300" width="100" height="40" as="geometry" />
        </mxCell>
        <mxCell id="_dNiTlbKljafT5K42C06-14" value="Strategies" style="shape=label;whiteSpace=wrap;html=1;strokeColor=#36393d;fillColor=#eeeeee;rounded=0;" parent="1" vertex="1">
          <mxGeometry x="340" y="80" width="120" height="40" as="geometry" />
        </mxCell>
        <mxCell id="_dNiTlbKljafT5K42C06-24" value="market" style="rounded=0;whiteSpace=wrap;html=1;strokeColor=#6c8ebf;fillColor=#dae8fc;" parent="1" vertex="1">
          <mxGeometry x="120" y="200" width="560" height="40" as="geometry" />
        </mxCell>
        <mxCell id="_dNiTlbKljafT5K42C06-25" value="security&lt;div&gt;master&lt;/div&gt;" style="rounded=1;whiteSpace=wrap;html=1;strokeColor=#0F8B8D;fontColor=#143642;fillColor=#FAE5C7;shape=label;aspect=fixed;" parent="1" vertex="1">
          <mxGeometry x="-200" y="188" width="160" height="64" as="geometry" />
        </mxCell>
        <mxCell id="_dNiTlbKljafT5K42C06-26" value="config parser" style="rounded=0;whiteSpace=wrap;html=1;strokeColor=#6c8ebf;fillColor=#dae8fc;" parent="1" vertex="1">
          <mxGeometry x="-20" y="200" width="100" height="40" as="geometry" />
        </mxCell>
        <mxCell id="_dNiTlbKljafT5K42C06-27" value="configs" style="shape=cylinder3;whiteSpace=wrap;html=1;boundedLbl=1;backgroundOutline=1;size=15;strokeColor=#666666;fontColor=#333333;fillColor=#f5f5f5;" parent="1" vertex="1">
          <mxGeometry x="-10" y="120" width="80" height="60" as="geometry" />
        </mxCell>
        <mxCell id="jhaZnHma3A8EsAPDaMVV-1" value="log module&lt;div&gt;...&lt;/div&gt;" style="rounded=1;whiteSpace=wrap;html=1;strokeColor=#0F8B8D;fontColor=#143642;fillColor=#FAE5C7;shape=label;aspect=fixed;" parent="1" vertex="1">
          <mxGeometry x="-200" y="276" width="160" height="64" as="geometry" />
        </mxCell>
        <mxCell id="jhaZnHma3A8EsAPDaMVV-3" value="data source" style="rounded=0;whiteSpace=wrap;html=1;strokeColor=#6c8ebf;fillColor=#dae8fc;" parent="1" vertex="1">
          <mxGeometry x="130" y="252" width="240" height="38" as="geometry" />
        </mxCell>
      </root>
    </mxGraphModel>
  </diagram>
  <diagram id="wPJF7njlaBgjAIKBQbjB" name="Framework v2">
    <mxGraphModel dx="2466" dy="1585" grid="1" gridSize="10" guides="1" tooltips="1" connect="1" arrows="1" fold="1" page="0" pageScale="1" pageWidth="827" pageHeight="1169" math="0" shadow="0">
      <root>
        <mxCell id="0" />
        <mxCell id="1" parent="0" />
        <mxCell id="O3uTB51MjD1JjQQONiIE-22" value="" style="rounded=0;whiteSpace=wrap;html=1;" vertex="1" parent="1">
          <mxGeometry x="290" y="-141" width="220" height="220" as="geometry" />
        </mxCell>
        <mxCell id="O3uTB51MjD1JjQQONiIE-13" value="" style="rounded=0;whiteSpace=wrap;html=1;" vertex="1" parent="1">
          <mxGeometry x="-140" y="-141" width="360" height="220" as="geometry" />
        </mxCell>
        <mxCell id="ARPCE_inuEAPBM3ncDo3-1" value="socket" style="rounded=0;whiteSpace=wrap;html=1;" vertex="1" parent="1">
          <mxGeometry x="20" y="380" width="120" height="60" as="geometry" />
        </mxCell>
        <mxCell id="ARPCE_inuEAPBM3ncDo3-2" value="channel" style="rounded=0;whiteSpace=wrap;html=1;" vertex="1" parent="1">
          <mxGeometry x="20" y="300" width="120" height="60" as="geometry" />
        </mxCell>
        <mxCell id="ARPCE_inuEAPBM3ncDo3-3" value="dispatcher" style="rounded=0;whiteSpace=wrap;html=1;" vertex="1" parent="1">
          <mxGeometry x="20" y="220" width="120" height="60" as="geometry" />
        </mxCell>
        <mxCell id="dTr_HiXmWHe_7ZK1l-Ze-2" value="" style="shape=flexArrow;endArrow=classic;html=1;rounded=0;startArrow=classic;" edge="1" parent="1">
          <mxGeometry width="50" height="50" relative="1" as="geometry">
            <mxPoint x="-180" y="470" as="sourcePoint" />
            <mxPoint x="-180" y="120" as="targetPoint" />
          </mxGeometry>
        </mxCell>
        <mxCell id="dTr_HiXmWHe_7ZK1l-Ze-3" value="" style="endArrow=none;dashed=1;html=1;dashPattern=1 3;strokeWidth=2;rounded=0;" edge="1" parent="1">
          <mxGeometry width="50" height="50" relative="1" as="geometry">
            <mxPoint x="-340" y="370" as="sourcePoint" />
            <mxPoint x="710" y="370" as="targetPoint" />
          </mxGeometry>
        </mxCell>
        <mxCell id="dTr_HiXmWHe_7ZK1l-Ze-4" value="Transport&amp;nbsp; Layer" style="text;html=1;align=center;verticalAlign=middle;resizable=0;points=[];autosize=1;strokeColor=none;fillColor=none;fontStyle=1" vertex="1" parent="1">
          <mxGeometry x="595" y="370" width="110" height="30" as="geometry" />
        </mxCell>
        <mxCell id="dTr_HiXmWHe_7ZK1l-Ze-5" value="Application Layer" style="text;html=1;align=center;verticalAlign=middle;resizable=0;points=[];autosize=1;strokeColor=none;fillColor=none;fontStyle=1" vertex="1" parent="1">
          <mxGeometry x="590" y="340" width="120" height="30" as="geometry" />
        </mxCell>
        <mxCell id="O3uTB51MjD1JjQQONiIE-3" value="binary stream" style="rounded=1;whiteSpace=wrap;html=1;" vertex="1" parent="1">
          <mxGeometry x="-240" y="380" width="120" height="60" as="geometry" />
        </mxCell>
        <mxCell id="O3uTB51MjD1JjQQONiIE-4" value="event" style="rounded=1;whiteSpace=wrap;html=1;" vertex="1" parent="1">
          <mxGeometry x="-240" y="300" width="120" height="60" as="geometry" />
        </mxCell>
        <mxCell id="O3uTB51MjD1JjQQONiIE-5" value="callback" style="rounded=1;whiteSpace=wrap;html=1;" vertex="1" parent="1">
          <mxGeometry x="-180" y="150" width="120" height="60" as="geometry" />
        </mxCell>
        <mxCell id="O3uTB51MjD1JjQQONiIE-6" value="function" style="rounded=1;whiteSpace=wrap;html=1;" vertex="1" parent="1">
          <mxGeometry x="-300" y="150" width="120" height="60" as="geometry" />
        </mxCell>
        <mxCell id="O3uTB51MjD1JjQQONiIE-7" value="" style="endArrow=none;dashed=1;html=1;dashPattern=1 3;strokeWidth=2;rounded=0;" edge="1" parent="1">
          <mxGeometry width="50" height="50" relative="1" as="geometry">
            <mxPoint x="-340" y="120" as="sourcePoint" />
            <mxPoint x="520" y="120" as="targetPoint" />
          </mxGeometry>
        </mxCell>
        <mxCell id="O3uTB51MjD1JjQQONiIE-10" value="Framework" style="text;html=1;align=center;verticalAlign=middle;resizable=0;points=[];autosize=1;strokeColor=none;fillColor=none;fontStyle=1" vertex="1" parent="1">
          <mxGeometry x="445" y="120" width="80" height="30" as="geometry" />
        </mxCell>
        <mxCell id="O3uTB51MjD1JjQQONiIE-11" value="Business" style="text;html=1;align=center;verticalAlign=middle;resizable=0;points=[];autosize=1;strokeColor=none;fillColor=none;fontStyle=1" vertex="1" parent="1">
          <mxGeometry x="450" y="90" width="70" height="30" as="geometry" />
        </mxCell>
        <mxCell id="O3uTB51MjD1JjQQONiIE-14" value="Market" style="rounded=0;whiteSpace=wrap;html=1;" vertex="1" parent="1">
          <mxGeometry x="-80" y="-11" width="120" height="60" as="geometry" />
        </mxCell>
        <mxCell id="O3uTB51MjD1JjQQONiIE-15" value="OrderManager" style="rounded=0;whiteSpace=wrap;html=1;" vertex="1" parent="1">
          <mxGeometry x="40" y="-11" width="120" height="60" as="geometry" />
        </mxCell>
        <mxCell id="O3uTB51MjD1JjQQONiIE-16" value="Strategy" style="rounded=0;whiteSpace=wrap;html=1;" vertex="1" parent="1">
          <mxGeometry x="-20" y="-91" width="120" height="60" as="geometry" />
        </mxCell>
        <mxCell id="O3uTB51MjD1JjQQONiIE-17" value="StrategyTask" style="text;html=1;align=center;verticalAlign=middle;resizable=0;points=[];autosize=1;strokeColor=none;fillColor=none;" vertex="1" parent="1">
          <mxGeometry x="-5" y="-141" width="90" height="30" as="geometry" />
        </mxCell>
        <mxCell id="O3uTB51MjD1JjQQONiIE-18" value="task" style="rounded=0;whiteSpace=wrap;html=1;" vertex="1" parent="1">
          <mxGeometry x="20" y="140" width="120" height="60" as="geometry" />
        </mxCell>
        <mxCell id="O3uTB51MjD1JjQQONiIE-19" value="MarketDataTask" style="rounded=0;whiteSpace=wrap;html=1;" vertex="1" parent="1">
          <mxGeometry x="-310" y="-11" width="120" height="60" as="geometry" />
        </mxCell>
        <mxCell id="O3uTB51MjD1JjQQONiIE-20" value="RiskManager" style="rounded=0;whiteSpace=wrap;html=1;" vertex="1" parent="1">
          <mxGeometry x="345" y="-11" width="120" height="60" as="geometry" />
        </mxCell>
        <mxCell id="O3uTB51MjD1JjQQONiIE-21" value="MarketApi" style="rounded=0;whiteSpace=wrap;html=1;" vertex="1" parent="1">
          <mxGeometry x="345" y="-91" width="120" height="60" as="geometry" />
        </mxCell>
        <mxCell id="O3uTB51MjD1JjQQONiIE-23" value="TraderTask" style="text;html=1;align=center;verticalAlign=middle;resizable=0;points=[];autosize=1;strokeColor=none;fillColor=none;" vertex="1" parent="1">
          <mxGeometry x="365" y="-141" width="80" height="30" as="geometry" />
        </mxCell>
        <mxCell id="O3uTB51MjD1JjQQONiIE-26" value="" style="endArrow=none;dashed=1;html=1;dashPattern=1 3;strokeWidth=2;rounded=0;" edge="1" parent="1">
          <mxGeometry width="50" height="50" relative="1" as="geometry">
            <mxPoint x="-340" y="-171" as="sourcePoint" />
            <mxPoint x="520" y="-171" as="targetPoint" />
          </mxGeometry>
        </mxCell>
        <mxCell id="O3uTB51MjD1JjQQONiIE-27" value="Customize" style="text;html=1;align=center;verticalAlign=middle;resizable=0;points=[];autosize=1;strokeColor=none;fillColor=none;fontStyle=1" vertex="1" parent="1">
          <mxGeometry x="445" y="-201" width="80" height="30" as="geometry" />
        </mxCell>
        <mxCell id="O3uTB51MjD1JjQQONiIE-28" value="CTPMarketDataTask" style="rounded=0;whiteSpace=wrap;html=1;" vertex="1" parent="1">
          <mxGeometry x="-310" y="-271" width="120" height="60" as="geometry" />
        </mxCell>
        <mxCell id="O3uTB51MjD1JjQQONiIE-29" value="CTPTraderTask" style="rounded=0;whiteSpace=wrap;html=1;" vertex="1" parent="1">
          <mxGeometry x="340" y="-271" width="120" height="60" as="geometry" />
        </mxCell>
        <mxCell id="O3uTB51MjD1JjQQONiIE-30" value="StrategyXTask" style="rounded=0;whiteSpace=wrap;html=1;" vertex="1" parent="1">
          <mxGeometry x="-20" y="-271" width="120" height="60" as="geometry" />
        </mxCell>
        <mxCell id="5XECZ-hdbSdGraaxM2Om-2" value="logger" style="ellipse;whiteSpace=wrap;html=1;dashed=1;dashPattern=8 8;" vertex="1" parent="1">
          <mxGeometry x="200" y="160" width="120" height="80" as="geometry" />
        </mxCell>
        <mxCell id="5XECZ-hdbSdGraaxM2Om-3" value="MonitorTask" style="rounded=0;whiteSpace=wrap;html=1;dashed=1;dashPattern=8 8;" vertex="1" parent="1">
          <mxGeometry x="580" y="-11" width="120" height="60" as="geometry" />
        </mxCell>
        <mxCell id="5XECZ-hdbSdGraaxM2Om-4" value="config manager/robot" style="ellipse;whiteSpace=wrap;html=1;dashed=1;dashPattern=8 8;" vertex="1" parent="1">
          <mxGeometry x="240" y="250" width="120" height="80" as="geometry" />
        </mxCell>
        <mxCell id="5XECZ-hdbSdGraaxM2Om-5" value="Data Way" style="text;html=1;align=center;verticalAlign=middle;resizable=0;points=[];autosize=1;strokeColor=none;fillColor=none;fontStyle=1" vertex="1" parent="1">
          <mxGeometry x="-230" y="558" width="80" height="30" as="geometry" />
        </mxCell>
        <mxCell id="5XECZ-hdbSdGraaxM2Om-6" value="Class" style="text;html=1;align=center;verticalAlign=middle;resizable=0;points=[];autosize=1;strokeColor=none;fillColor=none;fontStyle=1" vertex="1" parent="1">
          <mxGeometry x="55" y="558" width="50" height="30" as="geometry" />
        </mxCell>
        <mxCell id="5XECZ-hdbSdGraaxM2Om-7" value="Common" style="text;html=1;align=center;verticalAlign=middle;resizable=0;points=[];autosize=1;strokeColor=none;fillColor=none;fontStyle=1" vertex="1" parent="1">
          <mxGeometry x="345" y="558" width="70" height="30" as="geometry" />
        </mxCell>
        <mxCell id="5XECZ-hdbSdGraaxM2Om-9" value="memory pool" style="ellipse;whiteSpace=wrap;html=1;dashed=1;dashPattern=8 8;" vertex="1" parent="1">
          <mxGeometry x="330" y="160" width="120" height="80" as="geometry" />
        </mxCell>
        <mxCell id="5XECZ-hdbSdGraaxM2Om-10" value="metric" style="ellipse;whiteSpace=wrap;html=1;dashed=1;dashPattern=8 8;" vertex="1" parent="1">
          <mxGeometry x="370" y="250" width="120" height="80" as="geometry" />
        </mxCell>
      </root>
    </mxGraphModel>
  </diagram>
  <diagram id="iUi2eHRd38oPaE7ETfgh" name="第 4 页">
    <mxGraphModel dx="2866" dy="1585" grid="1" gridSize="10" guides="1" tooltips="1" connect="1" arrows="1" fold="1" page="0" pageScale="1" pageWidth="827" pageHeight="1169" math="0" shadow="0">
      <root>
        <mxCell id="0" />
        <mxCell id="1" parent="0" />
        <mxCell id="gJMI9WlRkhzVIMTlglma-1" value="MarketDataTask 1" style="rounded=0;whiteSpace=wrap;html=1;" vertex="1" parent="1">
          <mxGeometry x="-440" y="-210" width="120" height="60" as="geometry" />
        </mxCell>
        <mxCell id="gJMI9WlRkhzVIMTlglma-2" value="MarketDataTask 2" style="rounded=0;whiteSpace=wrap;html=1;" vertex="1" parent="1">
          <mxGeometry x="-240" y="-210" width="120" height="60" as="geometry" />
        </mxCell>
        <mxCell id="gJMI9WlRkhzVIMTlglma-5" value="" style="endArrow=none;dashed=1;html=1;rounded=0;" edge="1" parent="1">
          <mxGeometry width="50" height="50" relative="1" as="geometry">
            <mxPoint x="-610" y="-50" as="sourcePoint" />
            <mxPoint x="70" y="-51" as="targetPoint" />
          </mxGeometry>
        </mxCell>
        <mxCell id="gJMI9WlRkhzVIMTlglma-9" value="md1" style="html=1;shadow=0;dashed=0;align=center;verticalAlign=middle;shape=mxgraph.arrows2.arrow;dy=0.6;dx=40;direction=south;notch=0;" vertex="1" parent="1">
          <mxGeometry x="-415" y="-150" width="70" height="100" as="geometry" />
        </mxCell>
        <mxCell id="gJMI9WlRkhzVIMTlglma-10" value="md2" style="html=1;shadow=0;dashed=0;align=center;verticalAlign=middle;shape=mxgraph.arrows2.arrow;dy=0.6;dx=40;direction=south;notch=0;" vertex="1" parent="1">
          <mxGeometry x="-215" y="-150" width="70" height="100" as="geometry" />
        </mxCell>
        <mxCell id="gJMI9WlRkhzVIMTlglma-13" value="Single PUB" style="text;html=1;align=center;verticalAlign=middle;resizable=0;points=[];autosize=1;strokeColor=none;fillColor=none;fontStyle=1" vertex="1" parent="1">
          <mxGeometry x="-100" y="-150" width="80" height="30" as="geometry" />
        </mxCell>
        <mxCell id="gJMI9WlRkhzVIMTlglma-14" value="Multi SUB" style="text;html=1;align=center;verticalAlign=middle;resizable=0;points=[];autosize=1;strokeColor=none;fillColor=none;fontStyle=1" vertex="1" parent="1">
          <mxGeometry x="-100" y="-80" width="80" height="30" as="geometry" />
        </mxCell>
        <mxCell id="gJMI9WlRkhzVIMTlglma-15" value="StrategyTask&lt;div&gt;A&lt;/div&gt;" style="rounded=0;whiteSpace=wrap;html=1;" vertex="1" parent="1">
          <mxGeometry x="-490" y="-40" width="120" height="60" as="geometry" />
        </mxCell>
        <mxCell id="gJMI9WlRkhzVIMTlglma-16" value="StrategyTask&lt;div&gt;B&lt;/div&gt;" style="rounded=0;whiteSpace=wrap;html=1;" vertex="1" parent="1">
          <mxGeometry x="-335" y="-40" width="120" height="60" as="geometry" />
        </mxCell>
        <mxCell id="gJMI9WlRkhzVIMTlglma-17" value="StrategyTask&lt;br&gt;C" style="rounded=0;whiteSpace=wrap;html=1;" vertex="1" parent="1">
          <mxGeometry x="-180" y="-40" width="120" height="60" as="geometry" />
        </mxCell>
        <mxCell id="gJMI9WlRkhzVIMTlglma-19" value="TradeTask&amp;nbsp;&lt;div&gt;account1&lt;/div&gt;" style="rounded=0;whiteSpace=wrap;html=1;" vertex="1" parent="1">
          <mxGeometry x="-415" y="120" width="120" height="60" as="geometry" />
        </mxCell>
        <mxCell id="gJMI9WlRkhzVIMTlglma-20" value="TradeTask&amp;nbsp;&lt;div&gt;account2&lt;/div&gt;" style="rounded=0;whiteSpace=wrap;html=1;" vertex="1" parent="1">
          <mxGeometry x="-240" y="120" width="120" height="60" as="geometry" />
        </mxCell>
        <mxCell id="gJMI9WlRkhzVIMTlglma-29" value="Single PUB &amp;amp; Single SUB" style="text;html=1;align=center;verticalAlign=middle;resizable=0;points=[];autosize=1;strokeColor=none;fillColor=none;fontStyle=1" vertex="1" parent="1">
          <mxGeometry x="-355" y="55" width="160" height="30" as="geometry" />
        </mxCell>
        <mxCell id="gJMI9WlRkhzVIMTlglma-30" value="&lt;span style=&quot;background-color: light-dark(#ffffff, var(--ge-dark-color, #121212));&quot;&gt;S_A_T_account1&lt;/span&gt;" style="html=1;shadow=0;dashed=0;align=center;verticalAlign=middle;shape=mxgraph.arrows2.arrow;dy=0.6;dx=40;direction=south;notch=0;" vertex="1" parent="1">
          <mxGeometry x="-570" y="20" width="70" height="100" as="geometry" />
        </mxCell>
        <mxCell id="gJMI9WlRkhzVIMTlglma-32" value="&lt;span style=&quot;background-color: light-dark(#ffffff, var(--ge-dark-color, #121212));&quot;&gt;T_account1_S_A&lt;/span&gt;" style="html=1;shadow=0;dashed=0;align=center;verticalAlign=middle;shape=mxgraph.arrows2.arrow;dy=0.6;dx=40;direction=north;notch=0;" vertex="1" parent="1">
          <mxGeometry x="-20" y="20" width="70" height="100" as="geometry" />
        </mxCell>
        <mxCell id="gJMI9WlRkhzVIMTlglma-34" value="" style="endArrow=none;dashed=1;html=1;rounded=0;" edge="1" parent="1">
          <mxGeometry width="50" height="50" relative="1" as="geometry">
            <mxPoint x="-615" y="20" as="sourcePoint" />
            <mxPoint x="65" y="19" as="targetPoint" />
          </mxGeometry>
        </mxCell>
        <mxCell id="gJMI9WlRkhzVIMTlglma-35" value="" style="endArrow=none;dashed=1;html=1;rounded=0;" edge="1" parent="1">
          <mxGeometry width="50" height="50" relative="1" as="geometry">
            <mxPoint x="-615" y="120" as="sourcePoint" />
            <mxPoint x="65" y="119" as="targetPoint" />
          </mxGeometry>
        </mxCell>
        <mxCell id="gJMI9WlRkhzVIMTlglma-36" value="" style="endArrow=none;dashed=1;html=1;rounded=0;" edge="1" parent="1">
          <mxGeometry width="50" height="50" relative="1" as="geometry">
            <mxPoint x="-610" y="-150" as="sourcePoint" />
            <mxPoint x="70" y="-151" as="targetPoint" />
          </mxGeometry>
        </mxCell>
      </root>
    </mxGraphModel>
  </diagram>
</mxfile>
